HIERARCHY
ROOT Hips
{
	OFFSET 0.000000 0.000000 0.000000
	CHANNELS 6 Xposition Yposition Zposition Zrotation Yrotation Xrotation 
	JOINT LHipJoint
	{
		OFFSET 0.000000 0.000000 0.000000
		CHANNELS 3 Zrotation Yrotation Xrotation
		JOINT LeftUpLeg
		{
			OFFSET 1.363060 -1.794630 0.839290
			CHANNELS 3 Zrotation Yrotation Xrotation
			JOINT LeftLeg
			{
				OFFSET 2.448110 -6.726130 0.000000
				CHANNELS 3 Zrotation Yrotation Xrotation
				JOINT LeftFoot
				{
					OFFSET 2.562200 -7.039590 0.000000
					CHANNELS 3 Zrotation Yrotation Xrotation
					JOINT LeftToeBase
					{
						OFFSET 0.157640 -0.433110 2.322550
						CHANNELS 3 Zrotation Yrotation Xrotation
						End Site
						{
							OFFSET 0.000000 0.000000 0.000000
						}
					}
				}
			}
		}
	}
	JOINT RHipJoint
	{
		OFFSET 0.000000 0.000000 0.000000
		CHANNELS 3 Zrotation Yrotation Xrotation
		JOINT RightUpLeg
		{
			OFFSET -1.305520 -1.794630 0.839290
			CHANNELS 3 Zrotation Yrotation Xrotation
			JOINT RightLeg
			{
				OFFSET -2.542530 -6.985550 0.000000
				CHANNELS 3 Zrotation Yrotation Xrotation
				JOINT RightFoot
				{
					OFFSET -2.568260 -7.056230 0.000000
					CHANNELS 3 Zrotation Yrotation Xrotation
					JOINT RightToeBase
					{
						OFFSET -0.164730 -0.452590 2.363150
						CHANNELS 3 Zrotation Yrotation Xrotation
						End Site
						{
							OFFSET 0.000000 0.000000 0.000000
						}
					}
				}
			}
		}
	}
	JOINT LowerBack
	{
		OFFSET 0.000000 0.000000 0.000000
		CHANNELS 3 Zrotation Yrotation Xrotation
		JOINT Spine
		{
			OFFSET 0.028270 2.035590 -0.193380
			CHANNELS 3 Zrotation Yrotation Xrotation
			JOINT Spine1
			{
				OFFSET 0.056720 2.048850 -0.042750
				CHANNELS 3 Zrotation Yrotation Xrotation
				JOINT Neck
				{
					OFFSET 0.000000 0.000000 0.000000
					CHANNELS 3 Zrotation Yrotation Xrotation
					JOINT Neck1
					{
						OFFSET -0.054170 1.746240 0.172020
						CHANNELS 3 Zrotation Yrotation Xrotation
						JOINT Head
						{
							OFFSET 0.104070 1.761360 -0.123970
							CHANNELS 3 Zrotation Yrotation Xrotation
							End Site
							{
								OFFSET 0.000000 0.000000 0.000000
							}
						}
					}
				}
				JOINT LeftShoulder
				{
					OFFSET 0.000000 0.000000 0.000000
					CHANNELS 3 Zrotation Yrotation Xrotation
					JOINT LeftArm
					{
						OFFSET 3.362410 1.200890 -0.311210
						CHANNELS 3 Zrotation Yrotation Xrotation
						JOINT LeftForeArm
						{
							OFFSET 4.983000 -0.000000 -0.000000
							CHANNELS 3 Zrotation Yrotation Xrotation
							JOINT LeftHand
							{
								OFFSET 3.483560 -0.000000 -0.000000
								CHANNELS 3 Zrotation Yrotation Xrotation
								JOINT LeftFingerBase
								{
									OFFSET 0.000000 0.000000 0.000000
									CHANNELS 3 Zrotation Yrotation Xrotation
									JOINT LeftHandIndex1
									{
										OFFSET 0.715260 -0.000000 -0.000000
										CHANNELS 3 Zrotation Yrotation Xrotation
										End Site
										{
											OFFSET 0.000000 0.000000 0.000000
										}
									}
								}
								JOINT LThumb
								{
									OFFSET 0.000000 0.000000 0.000000
									CHANNELS 3 Zrotation Yrotation Xrotation
									End Site
									{
										OFFSET 0.000000 0.000000 0.000000
									}
								}
							}
						}
					}
				}
				JOINT RightShoulder
				{
					OFFSET 0.000000 0.000000 0.000000
					CHANNELS 3 Zrotation Yrotation Xrotation
					JOINT RightArm
					{
						OFFSET -3.136600 1.374050 -0.404650
						CHANNELS 3 Zrotation Yrotation Xrotation
						JOINT RightForeArm
						{
							OFFSET -5.241900 -0.000000 -0.000000
							CHANNELS 3 Zrotation Yrotation Xrotation
							JOINT RightHand
							{
								OFFSET -3.444170 -0.000000 -0.000000
								CHANNELS 3 Zrotation Yrotation Xrotation
								JOINT RightFingerBase
								{
									OFFSET 0.000000 0.000000 0.000000
									CHANNELS 3 Zrotation Yrotation Xrotation
									JOINT RightHandIndex1
									{
										OFFSET -0.622530 -0.000000 -0.000000
										CHANNELS 3 Zrotation Yrotation Xrotation
										End Site
										{
											OFFSET 0.000000 0.000000 0.000000
										}
									}
								}
								JOINT RThumb
								{
									OFFSET 0.000000 0.000000 0.000000
									CHANNELS 3 Zrotation Yrotation Xrotation
									End Site
									{
										OFFSET 0.000000 0.000000 0.000000
									}
								}
							}
						}
					}
				}
			}
		}
	}
}
MOTION
Frames: 11
Frame Time: 0.008333
1.752325 16.605266 -2.013579 -152.376266 85.234870 -133.199261 -12.513876 2.167185 -2.337556 -4.798849 0.240771 -2.984405 -0.519940 2.162078 31.962881 1.452091 9.055305 1.366156 1.254600 0.000001 -76.943300 7.066584 0.849189 1.935923 0.752434 11.624654 -43.064071 2.278818 -1.011950 17.818208 1.150458 7.154909 9.966543 1.702099 -0.000000 -56.490800 7.900487 -3.293256 3.022626 0.448498 -3.752971 -1.724546 -8.144435 -3.674683 2.447289 10.047928 -7.822675 -5.762497 -4.223368 -0.324499 0.330670 0.000000 0.000000 0.000000 0.507676 6.827018 2.753016 -29.625395 -10.074903 4.003906 -1.565891 -68.337846 0.026749 -9.935150 0.330260 -0.015177 -0.014111 0.147265 0.000000 0.000000 0.000000 0.000000 0.000000 0.000000 0.000000 19.418552 -7.718814 0.628194 64.617901 -3.887680 -12.964293 4.272108 20.637020 0.014603 9.039959 6.288834 0.498053 0.063780 -0.044314 -0.000000 0.000000 0.000000 0.000000 0.000000 0.000000 0.000000 
1.936405 16.611269 -2.028504 -151.437295 84.651670 -132.254336 -12.829062 2.134406 -2.392263 -4.084443 0.981132 -4.348036 -0.311997 2.332244 34.593382 1.598015 9.962690 2.951793 1.604399 0.000000 -74.932600 6.934405 0.729861 1.787930 1.693211 11.252735 -42.954607 2.298454 -1.107130 19.040181 1.085241 6.638541 9.544493 1.492799 0.000000 -55.700599 8.437718 -3.258749 3.156874 0.554849 -3.736787 -1.727894 -8.142890 -3.663936 2.396515 10.013280 -7.481700 -5.680258 -4.264926 -0.327365 0.349011 0.000000 0.000000 0.000000 0.324938 6.834742 2.760181 -30.665353 -9.643530 4.637225 -1.640359 -67.816859 0.025658 -9.918533 0.316529 -0.014429 -0.021598 0.140836 0.000000 0.000000 0.000000 0.000000 0.000000 0.000000 0.000000 19.469662 -7.406111 0.639696 64.446273 -3.191881 -12.839594 4.273978 20.389729 0.014529 8.958848 6.277018 0.492651 0.063364 -0.044640 -0.000000 0.000000 0.000000 0.000000 0.000000 0.000000 0.000000 
2.117543 16.621229 -2.042036 -151.161140 84.036484 -131.976423 -13.111892 2.077614 -2.461179 -3.425918 1.798316 -5.821448 -0.120758 2.489521 37.283262 1.775007 11.056614 4.401714 2.010700 -0.000000 -71.446500 6.819588 0.621489 1.651513 2.562501 10.875741 -42.740775 2.329313 -1.178893 20.135291 1.020313 6.154012 8.795783 1.271000 -0.000000 -55.191100 8.917916 -3.215531 3.291557 0.648800 -3.708457 -1.730317 -8.139774 -3.641405 2.345287 10.006682 -7.136373 -5.579064 -4.306415 -0.330343 0.372396 0.000000 0.000000 0.000000 0.190262 6.807761 2.759266 -31.767938 -9.249043 5.347584 -1.718230 -67.208852 0.024537 -9.910729 0.314920 -0.014784 -0.028495 0.134130 0.000000 0.000000 0.000000 0.000000 0.000000 0.000000 0.000000 19.550945 -7.095186 0.649186 64.292786 -2.470605 -12.661903 4.273667 20.138509 0.014424 8.873707 6.262368 0.486848 0.062815 -0.044901 -0.000000 0.000000 0.000000 0.000000 0.000000 0.000000 0.000000 
2.295823 16.635015 -2.054126 -151.383443 83.394486 -132.193120 -13.360111 1.997610 -2.540996 -2.835761 2.660444 -7.394106 0.046420 2.637295 40.003324 1.975689 12.319468 5.602105 2.461000 0.000000 -66.590800 6.720190 0.522782 1.534168 3.338666 10.527894 -42.424368 2.366976 -1.226598 21.082980 0.952986 5.692293 7.808039 1.048900 0.000001 -54.919600 9.339407 -3.162845 3.416573 0.729762 -3.668035 -1.733439 -8.136244 -3.607009 2.294599 10.025469 -6.781827 -5.459939 -4.346837 -0.333368 0.400710 0.000000 0.000000 0.000000 0.086452 6.757641 2.752757 -32.895165 -8.898692 6.146145 -1.798547 -66.524564 0.023364 -9.910786 0.328588 -0.016543 -0.034849 0.127101 0.000000 0.000000 0.000000 0.000000 0.000000 0.000000 0.000000 19.655751 -6.778593 0.656382 64.162986 -1.733266 -12.458221 4.271562 19.890016 0.014287 8.792811 6.239355 0.480645 0.062108 -0.045127 -0.000000 0.000000 0.000000 0.000000 0.000000 0.000000 0.000000 
2.471064 16.652568 -2.064131 -152.076355 82.742188 -132.876064 -13.559670 1.900582 -2.631093 -2.360550 3.522368 -9.030235 0.185626 2.779195 42.701531 2.192407 13.732812 6.475533 2.937601 0.000000 -60.738501 6.646770 0.439194 1.435851 3.985486 10.214877 -42.007227 2.403671 -1.252770 21.877852 0.882057 5.260237 6.670530 0.841400 0.000000 -54.836100 9.675398 -3.101855 3.533189 0.792279 -3.615516 -1.736499 -8.132196 -3.560661 2.244663 10.073984 -6.427999 -5.325990 -4.385545 -0.336383 0.433166 0.000000 0.000000 0.000000 0.027391 6.675133 2.740746 -34.045600 -8.570574 7.022208 -1.879914 -65.774051 0.022136 -9.925598 0.358485 -0.019709 -0.040456 0.119701 0.000000 0.000000 0.000000 0.000000 0.000000 0.000000 0.000000 19.789381 -6.465251 0.662836 64.053526 -0.965970 -12.205836 4.267000 19.634129 0.014153 8.705308 6.223471 0.474642 0.061297 -0.045424 -0.000000 0.000000 0.000000 0.000000 0.000000 0.000000 0.000000 
2.643405 16.673882 -2.072485 -153.109421 82.078902 -133.887351 -13.713547 1.790750 -2.725882 -2.003242 4.351649 -10.720006 0.298655 2.918689 45.337735 2.414878 15.239060 6.985116 3.407700 -0.000001 -54.468500 6.595967 0.367869 1.360105 4.502032 9.951008 -41.496287 2.436323 -1.257263 22.495938 0.805248 4.836628 5.483114 0.651799 0.000000 -54.871200 9.933020 -3.033599 3.632657 0.838153 -3.552963 -1.741712 -8.127693 -3.504450 2.194281 10.143912 -6.066820 -5.177793 -4.421695 -0.339344 0.469752 0.000000 0.000000 0.000000 -0.007009 6.564509 2.726373 -35.191208 -8.253222 7.975217 -1.961229 -64.975851 0.020833 -9.954068 0.405981 -0.024581 -0.045419 0.111903 0.000000 0.000000 0.000000 0.000000 0.000000 0.000000 0.000000 19.938222 -6.144740 0.669514 63.967053 -0.175650 -11.935132 4.260549 19.373451 0.014031 8.619294 6.210464 0.469039 0.060373 -0.045845 -0.000000 0.000000 0.000000 0.000000 0.000000 0.000000 0.000000 
2.812879 16.698978 -2.079384 -154.427471 81.409789 -135.169094 -13.819743 1.674200 -2.820538 -1.782284 5.109773 -12.439699 0.390149 3.056731 47.864243 2.635337 16.781326 7.150984 3.841300 -0.000000 -48.455500 6.570769 0.309256 1.304259 4.883822 9.728845 -40.898108 2.461072 -1.242207 22.925941 0.722148 4.411279 4.331608 0.483400 0.000000 -54.961400 10.107408 -2.960120 3.714130 0.866852 -3.482301 -1.749282 -8.121978 -3.440283 2.143219 10.230562 -5.698988 -5.018411 -4.454616 -0.342189 0.509650 0.000000 0.000000 0.000000 -0.022680 6.428176 2.711303 -36.322487 -7.934993 8.993921 -2.041851 -64.140018 0.019452 -9.997311 0.469902 -0.030959 -0.049753 0.103733 0.000000 0.000000 0.000000 0.000000 0.000000 0.000000 0.000000 20.095732 -5.816400 0.677541 63.900690 0.644758 -11.648356 4.252248 19.102025 0.013940 8.532895 6.207451 0.464137 0.059369 -0.046471 -0.000000 0.000000 0.000000 0.000000 0.000000 0.000000 0.000000 
2.979563 16.727964 -2.085304 -155.964991 80.735082 -136.652698 -13.881290 1.555885 -2.908387 -1.702841 5.764546 -14.174470 0.465855 3.192363 50.246768 2.846565 18.292375 7.020512 4.209301 0.000000 -43.213400 6.570724 0.261567 1.264864 5.139966 9.534066 -40.222053 2.476327 -1.209577 23.157972 0.633061 3.971078 3.286713 0.335400 0.000000 -55.050901 10.202934 -2.883555 3.774995 0.879775 -3.406047 -1.760772 -8.114073 -3.370841 2.088261 10.325073 -5.315592 -4.847138 -4.483894 -0.344914 0.553121 0.000000 0.000000 0.000000 -0.032079 6.260912 2.698102 -37.429596 -7.590101 10.062909 -2.120843 -63.283837 0.017993 -10.054690 0.549073 -0.038744 -0.053524 0.095213 0.000000 0.000000 0.000000 0.000000 0.000000 0.000000 0.000000 20.249092 -5.469769 0.688686 63.853540 1.488406 -11.367919 4.242416 18.822356 0.013889 8.453208 6.212182 0.460236 0.058280 -0.047353 -0.000000 0.000000 0.000000 0.000000 0.000000 0.000000 0.000000 
3.143501 16.760852 -2.090763 -157.670900 80.056361 -138.288470 -13.901349 1.440092 -2.985348 -1.768149 6.294760 -15.906867 0.530423 3.323288 52.459137 3.041753 19.704442 6.646154 4.486000 0.000000 -38.981500 6.596076 0.223471 1.235076 5.283556 9.342105 -39.474221 2.481760 -1.162062 23.189617 0.539664 3.511597 2.396841 0.206300 0.000000 -55.100599 10.221846 -2.806465 3.818990 0.878178 -3.326589 -1.774388 -8.101750 -3.298332 2.033604 10.420783 -4.927285 -4.672601 -4.508300 -0.347356 0.597709 0.000000 0.000000 0.000000 -0.042578 6.085349 2.686929 -38.512284 -7.240703 11.169566 -2.199442 -62.395461 0.016479 -10.123713 0.638382 -0.047634 -0.056838 0.086534 0.000000 0.000000 0.000000 0.000000 0.000000 0.000000 0.000000 20.389985 -5.114820 0.702259 63.816337 2.377295 -11.070776 4.231496 18.525425 0.013900 8.372904 6.236308 0.457734 0.057179 -0.048538 -0.000000 0.000000 0.000000 0.000000 0.000000 0.000000 0.000000 
3.304862 16.797587 -2.096445 -159.481560 79.371144 -140.013258 -13.886829 1.329501 -3.046635 -1.967262 6.691399 -17.629171 0.586992 3.446712 54.485248 3.214049 20.950301 6.075208 4.650200 -0.000000 -35.755300 6.643551 0.191779 1.209258 5.337403 9.128249 -38.662146 2.479266 -1.101616 23.021090 0.444092 3.030815 1.690101 0.092300 -0.000000 -55.090400 10.174656 -2.730505 3.846752 0.864786 -3.245996 -1.790517 -8.083230 -3.224911 1.978291 10.508090 -4.531502 -4.496370 -4.527227 -0.349469 0.643002 0.000000 0.000000 0.000000 -0.065664 5.904789 2.678912 -39.569120 -6.877845 12.296570 -2.277760 -61.478206 0.014922 -10.201479 0.734139 -0.057229 -0.059797 0.077802 0.000000 0.000000 0.000000 0.000000 0.000000 0.000000 0.000000 20.505031 -4.747887 0.718813 63.785377 3.308563 -10.763707 4.220125 18.217077 0.013974 8.297698 6.277221 0.456736 0.056082 -0.050034 -0.000000 0.000000 0.000000 0.000000 0.000000 0.000000 0.000000 
3.463768 16.838020 -2.102938 -161.339761 78.678504 -141.774696 -13.844320 1.225747 -3.089569 -2.284696 6.955894 -19.330157 0.637062 3.559671 56.310147 3.357772 21.976161 5.357549 4.692700 -0.000000 -33.430900 6.709839 0.163870 1.180537 5.325997 8.866132 -37.788478 2.471888 -1.030137 22.658495 0.349329 2.536421 1.173565 -0.009800 -0.000000 -55.019000 10.071343 -2.656588 3.862261 0.841991 -3.165361 -1.809593 -8.057020 -3.151873 1.918586 10.578724 -4.119660 -4.316292 -4.540402 -0.351264 0.689601 0.000000 0.000000 0.000000 -0.108209 5.712485 2.675313 -40.602443 -6.480636 13.420240 -2.355581 -60.536942 0.013342 -10.285548 0.833029 -0.067329 -0.062463 0.069105 0.000000 0.000000 0.000000 0.000000 0.000000 0.000000 0.000000 20.581845 -4.359055 0.739489 63.758410 4.266017 -10.461849 4.208756 17.912914 0.014108 8.238764 6.328235 0.457338 0.054963 -0.051829 -0.000000 0.000000 0.000000 0.000000 0.000000 0.000000 0.000000 
